<svg width="47" height="47" viewBox="0 0 47 47" fill="none" xmlns="http://www.w3.org/2000/svg">
<path d="M0.713649 45.2978L0.722102 45.3062C0.946244 45.532 1.21281 45.7113 1.50646 45.8337C1.80012 45.9561 2.11508 46.0193 2.43323 46.0195C2.70094 46.0193 2.9668 45.9752 3.2202 45.8889L17.0171 41.2086L43.4924 14.7333C45.1109 13.1147 46.0201 10.9194 46.02 8.63035C46.0199 6.34134 45.1105 4.14612 43.4919 2.52762C41.8732 0.90911 39.6779 -0.000100204 37.3889 8.28316e-09C35.0999 0.000100221 32.9047 0.909503 31.2862 2.52815L4.81086 29.0034L0.130999 42.7999C-0.0164171 43.229 -0.0399473 43.6909 0.0631058 44.1326C0.166159 44.5744 0.391624 44.9782 0.713649 45.2978V45.2978ZM33.4847 4.72652C34.5216 3.69756 35.924 3.1214 37.3847 3.1242C38.8455 3.12701 40.2456 3.70855 41.2786 4.74149C42.3115 5.77443 42.893 7.17458 42.8957 8.63536C42.8985 10.0961 42.3223 11.4985 41.2933 12.5353L37.8118 16.0169L30.003 8.20805L33.4847 4.72652ZM7.52251 30.6886L27.8046 10.4064L35.6134 18.2152L15.3312 38.4973L3.51362 42.5062L7.52251 30.6886Z" fill="black"/>
</svg>
