<svg width="47" height="58" viewBox="0 0 47 58" fill="none" xmlns="http://www.w3.org/2000/svg">
<path d="M3.83504 54.6488C3.82929 55.4047 4.12356 56.132 4.6533 56.6712C5.18303 57.2104 5.905 57.5175 6.66084 57.5251H39.3593C40.1151 57.5175 40.8371 57.2104 41.3668 56.6712C41.8965 56.132 42.1908 55.4047 42.185 54.6488V16.2988H3.83504V54.6488ZM7.67004 20.1338H38.35V53.6901H7.67004V20.1338Z" fill="black"/>
<path d="M16.2989 23.9688H12.4639V47.9375H16.2989V23.9688Z" fill="black"/>
<path d="M24.9275 23.9688H21.0925V47.9375H24.9275V23.9688Z" fill="black"/>
<path d="M33.5562 23.9688H29.7212V47.9375H33.5562V23.9688Z" fill="black"/>
<path d="M31.6388 8.62875V2.87625C31.6388 1.26339 30.5017 0 29.0501 0H16.9699C15.5183 0 14.3813 1.26339 14.3813 2.87625V8.62875H0V12.4638H46.02V8.62875H31.6388ZM18.2163 3.835H27.8038V8.62875H18.2163V3.835Z" fill="black"/>
</svg>
